<svg version="1.1" xmlns="http://www.w3.org/2000/svg" viewBox="0 0 1630.3578948651234 564" width="1630.3578948651234" height="564">
  <!-- svg-source:excalidraw -->
  
  <defs>
    <style class="style-fonts">
      @font-face {
        font-family: "Virgil";
        src: url("https://excalidraw.com/Virgil.woff2");
      }
      @font-face {
        font-family: "Cascadia";
        src: url("https://excalidraw.com/Cascadia.woff2");
      }
    </style>
    
  </defs>
  <rect x="0" y="0" width="1630.3578948651234" height="564" fill="#ffffff"></rect><g stroke-linecap="round" transform="translate(389.1784564830158 19) rotate(0 115 68)"><path d="M32 0 M32 0 C97.19 0.36, 162.1 -1.03, 198 0 M32 0 C70.34 -1.04, 109.91 -0.17, 198 0 M198 0 C218.93 0.92, 231.86 10.41, 230 32 M198 0 C220.91 0.53, 232.07 8.47, 230 32 M230 32 C229.21 46.53, 230 64.99, 230 104 M230 32 C230.44 48.07, 231.13 64.14, 230 104 M230 104 C230.68 124.22, 219.9 136.72, 198 136 M230 104 C228.15 125.76, 218.1 134.1, 198 136 M198 136 C157.53 136.15, 116.39 137.46, 32 136 M198 136 C134.57 138.38, 70.5 137.33, 32 136 M32 136 C10.88 136.76, -1.89 124.88, 0 104 M32 136 C8.46 136.18, -0.64 123.19, 0 104 M0 104 C0.08 81.4, -0.57 63.38, 0 32 M0 104 C0.71 78.68, 1.17 55.19, 0 32 M0 32 C1.6 12.62, 11.62 0.42, 32 0 M0 32 C-0.25 10.64, 9.97 -1.41, 32 0" stroke="#1e1e1e" stroke-width="1" fill="none"></path></g><g transform="translate(399.1784564830158 39) rotate(0 101.53990173339844 11.747963033134795)"><text x="0" y="0" font-family="Virgil, Segoe UI Emoji" font-size="18.79674085301567px" fill="#1e1e1e" text-anchor="start" style="white-space: pre;" direction="ltr" dominant-baseline="text-before-edge">Thread Pool Producer</text></g><g transform="translate(425.1784564830158 91) rotate(0 8.359992980957031 12.5)"><text x="0" y="0" font-family="Virgil, Segoe UI Emoji" font-size="20px" fill="#1e1e1e" text-anchor="start" style="white-space: pre;" direction="ltr" dominant-baseline="text-before-edge">t1</text></g><g transform="translate(469.81846350205876 89.5) rotate(0 12.769989013671875 12.5)"><text x="0" y="0" font-family="Virgil, Segoe UI Emoji" font-size="20px" fill="#1e1e1e" text-anchor="start" style="white-space: pre;" direction="ltr" dominant-baseline="text-before-edge">t2</text></g><g transform="translate(554.4084674693439 89.5) rotate(0 10.319992065429688 12.5)"><text x="0" y="0" font-family="Virgil, Segoe UI Emoji" font-size="20px" fill="#1e1e1e" text-anchor="start" style="white-space: pre;" direction="ltr" dominant-baseline="text-before-edge">tn</text></g><g transform="translate(520.1784564830158 90) rotate(0 8.219993591308594 12.5)"><text x="0" y="0" font-family="Virgil, Segoe UI Emoji" font-size="20px" fill="#1e1e1e" text-anchor="start" style="white-space: pre;" direction="ltr" dominant-baseline="text-before-edge">...</text></g><g stroke-linecap="round"><g transform="translate(356.1784564830158 144) rotate(0 -72.37085282415151 60.565446511395265)"><path d="M-1.09 -1.1 C-25.21 19.2, -120.5 100.28, -144.56 120.8 M0.54 0.93 C-23.71 21.52, -120.78 102.35, -145.28 122.23" stroke="#1971c2" stroke-width="1" fill="none"></path></g><g transform="translate(356.1784564830158 144) rotate(0 -72.37085282415151 60.565446511395265)"><path d="M-131.89 97.12 C-135.36 103.53, -138.05 111.27, -147.09 124.07 M-129.17 95.67 C-135.21 106.58, -142.82 117.02, -145.24 121.79" stroke="#1971c2" stroke-width="1" fill="none"></path></g><g transform="translate(356.1784564830158 144) rotate(0 -72.37085282415151 60.565446511395265)"><path d="M-118.84 112.96 C-126.24 114.31, -133 117.11, -147.09 124.07 M-116.12 111.51 C-127.24 116.13, -139.94 120.39, -145.24 121.79" stroke="#1971c2" stroke-width="1" fill="none"></path></g></g><mask></mask><g stroke-linecap="round"><g transform="translate(235.1784564830158 283) rotate(0 66.33002058379353 -59.52098840575667)"><path d="M-0.35 -0.58 C21.88 -20.69, 110.68 -100.82, 133.01 -120.77 M1.67 1.73 C23.78 -18.24, 110.15 -99.5, 132.07 -119.64" stroke="#1971c2" stroke-width="1" fill="none"></path></g><g transform="translate(235.1784564830158 283) rotate(0 66.33002058379353 -59.52098840575667)"><path d="M117.46 -92.91 C120.79 -98.99, 125.2 -108.31, 132.27 -118.33 M118.87 -93.16 C121.82 -97.38, 124.72 -103.66, 132.61 -118.75" stroke="#1971c2" stroke-width="1" fill="none"></path></g><g transform="translate(235.1784564830158 283) rotate(0 66.33002058379353 -59.52098840575667)"><path d="M103.48 -107.93 C110.53 -109.97, 118.67 -115.28, 132.27 -118.33 M104.88 -108.18 C110.71 -109.27, 116.43 -112.52, 132.61 -118.75" stroke="#1971c2" stroke-width="1" fill="none"></path></g></g><mask></mask><g transform="translate(116.1784564830158 114) rotate(0 130.99989318847656 12.5)"><text x="0" y="0" font-family="Virgil, Segoe UI Emoji" font-size="20px" fill="#1971c2" text-anchor="start" style="white-space: pre;" direction="ltr" dominant-baseline="text-before-edge">(sync) Request / Response</text></g><g stroke-linecap="round" transform="translate(713.1784564830158 61) rotate(0 170 39)"><path d="M19.5 0 M19.5 0 C101.71 -0.44, 185.1 -1.83, 320.5 0 M19.5 0 C122.68 0.45, 226.61 0.68, 320.5 0 M320.5 0 C335.08 -1.41, 340.44 4.91, 340 19.5 M320.5 0 C333.32 -1.03, 341.48 8.26, 340 19.5 M340 19.5 C338.22 29.17, 340.17 40.45, 340 58.5 M340 19.5 C339.79 28.85, 341.28 38.63, 340 58.5 M340 58.5 C338.42 72.2, 335.31 77.6, 320.5 78 M340 58.5 C341.13 72.13, 334.14 75.91, 320.5 78 M320.5 78 C246.11 78.45, 173.98 77.86, 19.5 78 M320.5 78 C212.38 78.14, 103.32 78.21, 19.5 78 M19.5 78 C5.27 79.05, -1.42 71.99, 0 58.5 M19.5 78 C5.77 78.18, -1.82 71.42, 0 58.5 M0 58.5 C-0.31 42.84, -1.38 28.86, 0 19.5 M0 58.5 C-0.34 48.09, 1.26 37.18, 0 19.5 M0 19.5 C-1.47 5.32, 6.54 -1.49, 19.5 0 M0 19.5 C1 8.15, 4.81 -2.12, 19.5 0" stroke="#e03131" stroke-width="1" fill="none"></path></g><g stroke-linecap="round"><g transform="translate(763.1784564830158 60) rotate(0 0.8835283165975625 39.260657551623865)"><path d="M-0.43 0.49 C-0.42 13.76, -0.31 65.74, -0.01 78.83 M1.54 -0.3 C1.92 12.71, 2.29 64.23, 2.18 77.14" stroke="#e03131" stroke-width="1" fill="none"></path></g></g><mask></mask><g stroke-linecap="round"><g transform="translate(820.1784564830158 60) rotate(0 0.3951291691512324 38.30059990078209)"><path d="M-0.86 -0.08 C-0.43 12.63, 1.46 63.78, 1.65 76.84 M0.89 -1.16 C1.3 11.59, 0.72 64.28, 1.04 77.76" stroke="#e03131" stroke-width="1" fill="none"></path></g></g><mask></mask><g stroke-linecap="round"><g transform="translate(885.1784564830158 59) rotate(0 0.33286606185134815 40.711859885752204)"><path d="M-1.14 1.12 C-0.84 14.56, 1.32 66.61, 1.81 79.83 M0.46 0.67 C0.59 14.27, 0.69 67.29, 0.76 80.76" stroke="#e03131" stroke-width="1" fill="none"></path></g></g><mask></mask><g stroke-linecap="round"><g transform="translate(949.1784564830158 61) rotate(0 0.5827661074432626 40.63214977297932)"><path d="M0.29 1 C0.66 14.52, 2.24 67.61, 2.18 80.78 M-1.02 0.48 C-0.69 13.69, 1.31 65.6, 1.85 79.07" stroke="#e03131" stroke-width="1" fill="none"></path></g></g><mask></mask><g stroke-linecap="round"><g transform="translate(996.1784564830158 61) rotate(0 -0.020823355585548597 39.541494716685264)"><path d="M-0.23 0.94 C-0.07 14, 1.38 64.7, 1.77 77.45 M-1.81 0.38 C-1.82 13.68, 0.6 65.69, 1.23 78.7" stroke="#e03131" stroke-width="1" fill="none"></path></g></g><mask></mask><g stroke-linecap="round"><g transform="translate(633.1784564830158 60) rotate(0 37.08884383480995 6.108951974101359)"><path d="M0.93 -1 C13.49 1.11, 62.01 9.7, 74.22 12.14 M-0.04 1.08 C12.47 3.37, 61.12 11.47, 73.39 13.22" stroke="#e03131" stroke-width="1" fill="none"></path></g><g transform="translate(633.1784564830158 60) rotate(0 37.08884383480995 6.108951974101359)"><path d="M42.28 19.36 C48.6 17.95, 57.13 15.27, 71.57 12.89 M43.57 18.06 C55.51 16.39, 66.96 13.75, 74.18 12.69" stroke="#e03131" stroke-width="1" fill="none"></path></g><g transform="translate(633.1784564830158 60) rotate(0 37.08884383480995 6.108951974101359)"><path d="M45.46 -0.91 C51.03 1.88, 58.91 3.37, 71.57 12.89 M46.75 -2.21 C57.66 4, 67.87 9.22, 74.18 12.69" stroke="#e03131" stroke-width="1" fill="none"></path></g></g><mask></mask><g transform="translate(656.1784564830158 10) rotate(0 62.03993225097656 12.5)"><text x="0" y="0" font-family="Virgil, Segoe UI Emoji" font-size="20px" fill="#e03131" text-anchor="start" style="white-space: pre;" direction="ltr" dominant-baseline="text-before-edge">put(Rsponse)</text></g><g stroke-linecap="round" transform="translate(1155.178456483016 36) rotate(0 115 68)"><path d="M32 0 M32 0 C69.58 1.34, 108.8 0.37, 198 0 M32 0 C85.27 0.38, 140.6 -0.13, 198 0 M198 0 C219.49 1.36, 228.31 9.71, 230 32 M198 0 C218.94 0.9, 231.87 10.53, 230 32 M230 32 C228.91 56.7, 229.95 83.06, 230 104 M230 32 C229.37 50.25, 230.26 69.44, 230 104 M230 104 C229.8 127.18, 220.56 134.27, 198 136 M230 104 C232.06 124.67, 219.33 136.1, 198 136 M198 136 C161.74 137.66, 124.87 137.94, 32 136 M198 136 C156.48 136.41, 114.47 136.33, 32 136 M32 136 C9.44 136.49, -0.39 127.17, 0 104 M32 136 C9.47 136.79, 2.19 123.99, 0 104 M0 104 C-0.48 83.32, -1.68 61.21, 0 32 M0 104 C0.54 87.24, -0.03 72.53, 0 32 M0 32 C1.73 10.11, 11.84 0.7, 32 0 M0 32 C-0.25 10.05, 11.39 0.18, 32 0" stroke="#1e1e1e" stroke-width="1" fill="none"></path></g><g transform="translate(1169.178456483016 54) rotate(0 103.78990173339844 11.870939136099622)"><text x="0" y="0" font-family="Virgil, Segoe UI Emoji" font-size="18.993502617759383px" fill="#1e1e1e" text-anchor="start" style="white-space: pre;" direction="ltr" dominant-baseline="text-before-edge">Thread Pool Consumer</text></g><g transform="translate(1242.178456483016 104) rotate(0 8.359992980957031 12.5)"><text x="0" y="0" font-family="Virgil, Segoe UI Emoji" font-size="20px" fill="#1e1e1e" text-anchor="start" style="white-space: pre;" direction="ltr" dominant-baseline="text-before-edge">t1</text></g><g stroke-linecap="round" transform="translate(1217.178456483016 226) rotate(0 37 102)"><path d="M18.5 0 M18.5 0 C25.85 1.6, 36.71 -1.78, 55.5 0 M18.5 0 C28.31 -1.16, 39.48 -1.15, 55.5 0 M55.5 0 C68.57 1.09, 75.09 4.25, 74 18.5 M55.5 0 C68.87 -2.23, 74.98 5.65, 74 18.5 M74 18.5 C74.85 75.43, 76.02 130.93, 74 185.5 M74 18.5 C74.03 54.08, 72.39 91.05, 74 185.5 M74 185.5 C74.46 196.06, 69.7 203.29, 55.5 204 M74 185.5 C75.92 197.64, 69.53 205.24, 55.5 204 M55.5 204 C44.78 204.57, 32.59 205.38, 18.5 204 M55.5 204 C45.24 202.86, 34.03 203.21, 18.5 204 M18.5 204 C7.62 203.08, 0.79 197.75, 0 185.5 M18.5 204 C7.15 203.88, -0.43 196.07, 0 185.5 M0 185.5 C2.33 129.76, 2.88 72.22, 0 18.5 M0 185.5 C-0.4 133.53, 0.67 83.98, 0 18.5 M0 18.5 C-0.81 7.22, 7.9 1.87, 18.5 0 M0 18.5 C-1.69 8.24, 7.73 0.11, 18.5 0" stroke="#e03131" stroke-width="1" fill="none"></path></g><g stroke-linecap="round"><g transform="translate(1220.178456483016 271) rotate(0 35.37955626036967 -0.044099205582540435)"><path d="M0.64 -1.05 C12.62 -1.11, 59.66 -1.18, 71.24 -0.95 M-0.48 1.01 C11.42 1.12, 58.24 0.56, 70.42 0.09" stroke="#e03131" stroke-width="1" fill="none"></path></g></g><mask></mask><g stroke-linecap="round"><g transform="translate(1221.7989002226464 315.0440992055826) rotate(0 35.02015387137419 -0.26572047645714747)"><path d="M-0.15 0.73 C11.89 0.74, 59.76 0.74, 71.72 0.57 M-1.68 0.06 C10.3 -0.32, 59 -1.39, 71.16 -1.25" stroke="#e03131" stroke-width="1" fill="none"></path></g></g><mask></mask><g stroke-linecap="round"><g transform="translate(1221.7989002226464 358.0440992055825) rotate(0 35.508169214390136 -0.2431102484464418)"><path d="M0.52 -0.84 C12.62 -0.88, 60.13 0.23, 71.69 0.2 M-0.67 1.33 C11.41 0.87, 58.97 -1.55, 71.1 -1.82" stroke="#e03131" stroke-width="1" fill="none"></path></g></g><mask></mask><g stroke-linecap="round"><g transform="translate(1219.7989002226464 396.0440992055825) rotate(0 35.399961094930745 -0.17798659689719898)"><path d="M-0.91 0.63 C10.97 0.44, 59.7 -0.89, 71.71 -0.98 M0.82 -0.09 C12.56 -0.17, 59.53 -0.21, 71.13 0.04" stroke="#e03131" stroke-width="1" fill="none"></path></g></g><mask></mask><g transform="translate(1202.178456483016 198) rotate(0 58.31995391845703 12.5)"><text x="0" y="0" font-family="Virgil, Segoe UI Emoji" font-size="20px" fill="#e03131" text-anchor="start" style="white-space: pre;" direction="ltr" dominant-baseline="text-before-edge">Buffer 200</text></g><g stroke-linecap="round" transform="translate(1501.178456483016 237) rotate(0 58 11)"><path d="M57.41 -0.27 C67.55 -0.32, 80.31 1.29, 89.15 2.32 C97.99 3.35, 106.14 4.07, 110.46 5.89 C114.79 7.71, 116.4 11.15, 115.11 13.24 C113.82 15.34, 109.52 17.17, 102.73 18.47 C95.94 19.76, 84.63 20.64, 74.38 21.03 C64.13 21.42, 51.16 21.33, 41.23 20.82 C31.31 20.31, 21.74 19.23, 14.85 17.98 C7.97 16.73, 1.65 15.39, -0.08 13.32 C-1.8 11.25, 0.05 7.58, 4.51 5.54 C8.97 3.5, 15.84 1.8, 26.67 1.06 C37.5 0.32, 60.56 1.27, 69.49 1.1 C78.43 0.93, 80.57 0.08, 80.26 0.03 M81.2 1.93 C90.7 2.42, 99.63 2.13, 105.4 3.51 C111.16 4.88, 115.19 7.96, 115.78 10.19 C116.37 12.42, 113.99 15.24, 108.96 16.91 C103.93 18.57, 94.87 19.12, 85.59 20.18 C76.3 21.24, 63.63 23.52, 53.26 23.27 C42.89 23.02, 31.82 20.26, 23.36 18.67 C14.9 17.08, 6.27 15.26, 2.48 13.74 C-1.31 12.22, -1.96 11.53, 0.62 9.55 C3.19 7.58, 10.23 3.7, 17.93 1.9 C25.64 0.09, 36.44 -0.98, 46.84 -1.27 C57.24 -1.56, 74.96 -0.15, 80.34 0.17 C85.71 0.48, 79.76 0.16, 79.09 0.61" stroke="#1971c2" stroke-width="1" fill="none"></path></g><g stroke-linecap="round"><g transform="translate(1502.178456483016 247) rotate(0 3.072467800099389 49.545562270684144)"><path d="M0.68 -0.99 C1.38 15.57, 3.36 82.34, 4.24 99.04 M-0.42 1.11 C0.65 17.81, 5.54 83.58, 6.56 100.08" stroke="#1971c2" stroke-width="1" fill="none"></path></g></g><mask></mask><g stroke-linecap="round"><g transform="translate(1616.178456483016 246) rotate(0 2.2191734564490844 51.621916252654046)"><path d="M1.13 -0.05 C1.65 17.29, 1.79 85.67, 2 102.89 M0.26 -1.13 C1.25 16.52, 4.01 86.73, 4.18 104.37" stroke="#1971c2" stroke-width="1" fill="none"></path></g></g><mask></mask><g stroke-linecap="round"><g transform="translate(1510.178456483016 345) rotate(0 54.738446436040135 10.048715312318677)"><path d="M0.7 0.63 C9.62 3.76, 35.35 18.01, 53.54 18.73 C71.74 19.45, 100.61 7.2, 109.86 4.93 M-0.39 -0.09 C8.42 3.23, 34.56 19.08, 52.88 20.13 C71.21 21.18, 100.14 8.52, 109.55 6.21" stroke="#1971c2" stroke-width="1" fill="none"></path></g></g><mask></mask><g transform="translate(1547.178456483016 210) rotate(0 15.069992065429688 12.5)"><text x="0" y="0" font-family="Virgil, Segoe UI Emoji" font-size="20px" fill="#1971c2" text-anchor="start" style="white-space: pre;" direction="ltr" dominant-baseline="text-before-edge">DB</text></g><g stroke-linecap="round"><g transform="translate(1063.6609183737432 82.20150196990983) rotate(0 41.537700189072666 -7.583138935843721)"><path d="M0.28 0.97 C14 -1.69, 68.29 -13.23, 81.95 -16.13 M-1.03 0.43 C13.09 -2.02, 69.81 -12.07, 84.1 -14.72" stroke="#e03131" stroke-width="1" fill="none"></path></g><g transform="translate(1063.6609183737432 82.20150196990983) rotate(0 41.537700189072666 -7.583138935843721)"><path d="M59.79 -1.37 C64.78 -5.01, 71.19 -7.49, 84.82 -12.9 M58.49 -0.42 C67.16 -6.01, 77.34 -10.36, 83.29 -14.04" stroke="#e03131" stroke-width="1" fill="none"></path></g><g transform="translate(1063.6609183737432 82.20150196990983) rotate(0 41.537700189072666 -7.583138935843721)"><path d="M56.15 -21.56 C62.08 -19.79, 69.46 -16.85, 84.82 -12.9 M54.85 -20.61 C64.97 -18.48, 76.54 -15.13, 83.29 -14.04" stroke="#e03131" stroke-width="1" fill="none"></path></g></g><mask></mask><g transform="translate(1019.6609183737431 10.38953182026745) rotate(0 61.179931640625 12.5)"><text x="0" y="0" font-family="Virgil, Segoe UI Emoji" font-size="20px" fill="#e03131" text-anchor="start" style="white-space: pre;" direction="ltr" dominant-baseline="text-before-edge">pop(Rsponse)</text></g><g stroke-linecap="round"><g transform="translate(1387.1498511728232 189) rotate(0 47.607328360361294 30.649034274201853)"><path d="M0.36 0.85 C16.29 10.8, 80.02 49.85, 96.12 59.68 M-0.91 0.25 C14.82 10.38, 78.96 50.92, 95.23 61.05" stroke="#1971c2" stroke-width="1" fill="none"></path></g><g transform="translate(1387.1498511728232 189) rotate(0 47.607328360361294 30.649034274201853)"><path d="M67.31 54.9 C75.51 58.4, 85.88 59.95, 96.5 61.58 M65.33 54.58 C78.33 57.77, 88.61 59.12, 94.67 60.65" stroke="#1971c2" stroke-width="1" fill="none"></path></g><g transform="translate(1387.1498511728232 189) rotate(0 47.607328360361294 30.649034274201853)"><path d="M78.23 37.53 C82.64 47.07, 89.23 54.62, 96.5 61.58 M76.25 37.2 C84.82 47.33, 90.77 55.57, 94.67 60.65" stroke="#1971c2" stroke-width="1" fill="none"></path></g></g><mask></mask><g transform="translate(1220.178456483016 529) rotate(0 148.96987915039062 12.5)"><text x="0" y="0" font-family="Virgil, Segoe UI Emoji" font-size="20px" fill="#1e1e1e" text-anchor="start" style="white-space: pre;" direction="ltr" dominant-baseline="text-before-edge">Developed by Roman Firsov (c)</text></g><g stroke-linecap="round"><g transform="translate(161.60033318242222 429.2333013003881) rotate(0 -3.4218766994062264 -62.73330130038812)" fill-rule="evenodd"><path d="M0 0 L-10.98 7.12 L-25.52 10.92 L-42.07 10.51 L-55.71 5.56 L-62.37 0.96 L-68.09 -4.49 L-74.19 -16.17 L-75.27 -15.8 L-76.72 -13.5 L-85.71 -9.73 L-95.76 -9.57 L-101.42 -11.09 L-106.54 -13.18 L-112.22 -17.45 L-116.6 -23.81 L-117.53 -27.5 L-116.85 -31.11 L-120.08 -27.13 L-125.13 -26.67 L-131.36 -27.43 L-138.01 -29.84 L-144 -33.26 L-147.68 -37.28 L-149.98 -41.66 L-151.6 -50.39 L-150.24 -57.51 L-140.54 -67.71 L-132.93 -70.82 L-124.59 -71.36 L-120.02 -69.32 L-122.82 -73.61 L-122.49 -78.27 L-121.18 -83.65 L-116.18 -93.74 L-108.37 -103.19 L-98.54 -108.68 L-88.33 -111.12 L-74.89 -111.32 L-65.03 -109.2 L-56.28 -104.87 L-52.62 -100.34 L-52.61 -104.77 L-48.51 -112.49 L-40.28 -121.2 L-32.12 -128.07 L-21.86 -134.11 L-10.68 -138.14 L6.01 -140.81 L22.16 -138.95 L37.87 -134.37 L45.32 -130.4 L55.54 -123.28 L64.51 -114.05 L66.02 -108.14 L69.3 -110.9 L79.03 -112.98 L90.75 -112.14 L100.89 -107.67 L110.35 -100.19 L114.75 -90.35 L116.21 -83.9 L114.86 -74.37 L117.32 -77.05 L123.78 -76.59 L133.53 -72.8 L140.85 -66.04 L144.59 -56.36 L143.66 -47.18 L139.58 -41.1 L135.99 -37.63 L132.05 -37.56 L137.79 -35.03 L141.68 -31.29 L141.9 -24.47 L138.21 -18.64 L133.4 -16.12 L127.8 -15.69 L122.98 -16.74 L116.92 -22.38 L118.64 -17.6 L114.27 -7.08 L108.24 1.18 L102.48 6.38 L88.94 13.57 L76.14 15.36 L62.1 13.69 L48.52 9.07 L41.1 1.38 L40.72 5.07 L37.17 7.44 L32.38 9.54 L22.06 11.11 L12.32 9.51 L7.15 7.07 L2.83 4.29 L0 0" stroke="none" stroke-width="0" fill="#ffffff" fill-rule="evenodd"></path><path d="M0 0 C-1.83 1.19, -6.72 5.3, -10.98 7.12 C-15.23 8.94, -20.33 10.35, -25.52 10.92 C-30.7 11.48, -37.04 11.4, -42.07 10.51 C-47.1 9.62, -51.37 8.06, -55.71 5.56 C-60.05 3.06, -65.01 -0.87, -68.09 -4.49 C-71.17 -8.11, -72.75 -14.67, -74.19 -16.17 C-75.63 -17.67, -74.8 -14.57, -76.72 -13.5 C-78.64 -12.43, -82.54 -10.38, -85.71 -9.73 C-88.88 -9.07, -92.28 -8.99, -95.76 -9.57 C-99.23 -10.14, -103.79 -11.86, -106.54 -13.18 C-109.28 -14.49, -110.55 -15.68, -112.22 -17.45 C-113.9 -19.22, -115.72 -22.14, -116.6 -23.81 C-117.48 -25.49, -117.49 -26.28, -117.53 -27.5 C-117.57 -28.72, -116.42 -31.17, -116.85 -31.11 C-117.28 -31.05, -117.66 -27.74, -120.08 -27.13 C-122.5 -26.51, -127.37 -26.41, -131.36 -27.43 C-135.35 -28.46, -140.9 -30.89, -144 -33.26 C-147.11 -35.63, -148.72 -38.8, -149.98 -41.66 C-151.25 -44.52, -151.55 -47.75, -151.6 -50.39 C-151.64 -53.04, -151.3 -55.35, -150.24 -57.51 C-149.18 -59.67, -146.85 -61.66, -145.24 -63.35 C-143.62 -65.05, -142.59 -66.46, -140.54 -67.71 C-138.49 -68.95, -135.58 -70.22, -132.93 -70.82 C-130.27 -71.43, -126.74 -71.61, -124.59 -71.36 C-122.44 -71.11, -120.32 -68.94, -120.02 -69.32 C-119.73 -69.69, -122.63 -71.22, -122.82 -73.61 C-123.01 -76, -122.29 -80.29, -121.18 -83.65 C-120.07 -87, -118.31 -90.48, -116.18 -93.74 C-114.04 -96.99, -111.31 -100.69, -108.37 -103.19 C-105.43 -105.68, -101.88 -107.36, -98.54 -108.68 C-95.2 -110, -92.27 -110.68, -88.33 -111.12 C-84.39 -111.56, -78.78 -111.64, -74.89 -111.32 C-71.01 -111, -68.13 -110.28, -65.03 -109.2 C-61.93 -108.13, -58.35 -106.35, -56.28 -104.87 C-54.22 -103.39, -53.23 -100.35, -52.62 -100.34 C-52 -100.32, -53.29 -102.74, -52.61 -104.77 C-51.92 -106.79, -50.56 -109.75, -48.51 -112.49 C-46.45 -115.23, -43.01 -118.6, -40.28 -121.2 C-37.55 -123.79, -35.19 -125.91, -32.12 -128.07 C-29.05 -130.22, -25.43 -132.43, -21.86 -134.11 C-18.29 -135.79, -15.32 -137.02, -10.68 -138.14 C-6.03 -139.25, 0.54 -140.68, 6.01 -140.81 C11.48 -140.95, 16.84 -140.02, 22.16 -138.95 C27.47 -137.87, 32.96 -136.48, 37.87 -134.37 C42.79 -132.26, 48.23 -128.59, 51.66 -126.27 C55.09 -123.96, 56.31 -122.52, 58.46 -120.48 C60.6 -118.45, 63.25 -116.11, 64.51 -114.05 C65.77 -112, 65.22 -108.67, 66.02 -108.14 C66.82 -107.62, 67.14 -110.1, 69.3 -110.9 C71.47 -111.71, 75.45 -112.77, 79.03 -112.98 C82.6 -113.19, 87.11 -113.03, 90.75 -112.14 C94.39 -111.26, 97.62 -109.66, 100.89 -107.67 C104.15 -105.68, 108.04 -103.08, 110.35 -100.19 C112.66 -97.31, 113.77 -93.06, 114.75 -90.35 C115.72 -87.63, 116.19 -86.57, 116.21 -83.9 C116.23 -81.24, 114.68 -75.51, 114.86 -74.37 C115.04 -73.23, 115.83 -76.68, 117.32 -77.05 C118.8 -77.42, 121.08 -77.3, 123.78 -76.59 C126.49 -75.89, 130.68 -74.56, 133.53 -72.8 C136.37 -71.04, 139.01 -68.78, 140.85 -66.04 C142.7 -63.3, 144.12 -59.5, 144.59 -56.36 C145.05 -53.22, 144.49 -49.73, 143.66 -47.18 C142.82 -44.64, 140.85 -42.69, 139.58 -41.1 C138.3 -39.51, 137.25 -38.22, 135.99 -37.63 C134.74 -37.04, 131.75 -37.99, 132.05 -37.56 C132.35 -37.13, 136.18 -36.08, 137.79 -35.03 C139.39 -33.99, 141 -33.05, 141.68 -31.29 C142.37 -29.53, 142.48 -26.57, 141.9 -24.47 C141.32 -22.36, 139.62 -20.04, 138.21 -18.64 C136.79 -17.25, 135.13 -16.61, 133.4 -16.12 C131.66 -15.62, 129.53 -15.59, 127.8 -15.69 C126.06 -15.79, 124.79 -15.62, 122.98 -16.74 C121.17 -17.85, 117.65 -22.23, 116.92 -22.38 C116.2 -22.52, 118.79 -19.5, 118.64 -17.6 C118.49 -15.7, 116.73 -12.73, 116 -10.98 C115.27 -9.22, 115.56 -9.11, 114.27 -7.08 C112.98 -5.05, 110.21 -1.06, 108.24 1.18 C106.28 3.42, 105.69 4.32, 102.48 6.38 C99.26 8.45, 93.33 12.08, 88.94 13.57 C84.55 15.07, 80.61 15.34, 76.14 15.36 C71.67 15.38, 66.7 14.73, 62.1 13.69 C57.5 12.64, 52.02 11.12, 48.52 9.07 C45.02 7.02, 42.4 2.05, 41.1 1.38 C39.8 0.71, 42.17 3.71, 40.72 5.07 C39.27 6.43, 35.49 8.53, 32.38 9.54 C29.27 10.55, 25.41 11.11, 22.06 11.11 C18.72 11.1, 15.53 10.65, 12.32 9.51 C9.12 8.38, 4.89 5.87, 2.83 4.29 C0.78 2.7, 0.47 0.71, 0 0 M0 0 C-1.83 1.19, -6.72 5.3, -10.98 7.12 C-15.23 8.94, -20.33 10.35, -25.52 10.92 C-30.7 11.48, -37.04 11.4, -42.07 10.51 C-47.1 9.62, -51.37 8.06, -55.71 5.56 C-60.05 3.06, -65.01 -0.87, -68.09 -4.49 C-71.17 -8.11, -72.75 -14.67, -74.19 -16.17 C-75.63 -17.67, -74.8 -14.57, -76.72 -13.5 C-78.64 -12.43, -82.54 -10.38, -85.71 -9.73 C-88.88 -9.07, -92.28 -8.99, -95.76 -9.57 C-99.23 -10.14, -103.79 -11.86, -106.54 -13.18 C-109.28 -14.49, -110.55 -15.68, -112.22 -17.45 C-113.9 -19.22, -115.72 -22.14, -116.6 -23.81 C-117.48 -25.49, -117.49 -26.28, -117.53 -27.5 C-117.57 -28.72, -116.42 -31.17, -116.85 -31.11 C-117.28 -31.05, -117.66 -27.74, -120.08 -27.13 C-122.5 -26.51, -127.37 -26.41, -131.36 -27.43 C-135.35 -28.46, -140.9 -30.89, -144 -33.26 C-147.11 -35.63, -148.72 -38.8, -149.98 -41.66 C-151.25 -44.52, -151.55 -47.75, -151.6 -50.39 C-151.64 -53.04, -151.3 -55.35, -150.24 -57.51 C-149.18 -59.67, -146.85 -61.66, -145.24 -63.35 C-143.62 -65.05, -142.59 -66.46, -140.54 -67.71 C-138.49 -68.95, -135.58 -70.22, -132.93 -70.82 C-130.27 -71.43, -126.74 -71.61, -124.59 -71.36 C-122.44 -71.11, -120.32 -68.94, -120.02 -69.32 C-119.73 -69.69, -122.63 -71.22, -122.82 -73.61 C-123.01 -76, -122.29 -80.29, -121.18 -83.65 C-120.07 -87, -118.31 -90.48, -116.18 -93.74 C-114.04 -96.99, -111.31 -100.69, -108.37 -103.19 C-105.43 -105.68, -101.88 -107.36, -98.54 -108.68 C-95.2 -110, -92.27 -110.68, -88.33 -111.12 C-84.39 -111.56, -78.78 -111.64, -74.89 -111.32 C-71.01 -111, -68.13 -110.28, -65.03 -109.2 C-61.93 -108.13, -58.35 -106.35, -56.28 -104.87 C-54.22 -103.39, -53.23 -100.35, -52.62 -100.34 C-52 -100.32, -53.29 -102.74, -52.61 -104.77 C-51.92 -106.79, -50.56 -109.75, -48.51 -112.49 C-46.45 -115.23, -43.01 -118.6, -40.28 -121.2 C-37.55 -123.79, -35.19 -125.91, -32.12 -128.07 C-29.05 -130.22, -25.43 -132.43, -21.86 -134.11 C-18.29 -135.79, -15.32 -137.02, -10.68 -138.14 C-6.03 -139.25, 0.54 -140.68, 6.01 -140.81 C11.48 -140.95, 16.84 -140.02, 22.16 -138.95 C27.47 -137.87, 32.96 -136.48, 37.87 -134.37 C42.79 -132.26, 48.23 -128.59, 51.66 -126.27 C55.09 -123.96, 56.31 -122.52, 58.46 -120.48 C60.6 -118.45, 63.25 -116.11, 64.51 -114.05 C65.77 -112, 65.22 -108.67, 66.02 -108.14 C66.82 -107.62, 67.14 -110.1, 69.3 -110.9 C71.47 -111.71, 75.45 -112.77, 79.03 -112.98 C82.6 -113.19, 87.11 -113.03, 90.75 -112.14 C94.39 -111.26, 97.62 -109.66, 100.89 -107.67 C104.15 -105.68, 108.04 -103.08, 110.35 -100.19 C112.66 -97.31, 113.77 -93.06, 114.75 -90.35 C115.72 -87.63, 116.19 -86.57, 116.21 -83.9 C116.23 -81.24, 114.68 -75.51, 114.86 -74.37 C115.04 -73.23, 115.83 -76.68, 117.32 -77.05 C118.8 -77.42, 121.08 -77.3, 123.78 -76.59 C126.49 -75.89, 130.68 -74.56, 133.53 -72.8 C136.37 -71.04, 139.01 -68.78, 140.85 -66.04 C142.7 -63.3, 144.12 -59.5, 144.59 -56.36 C145.05 -53.22, 144.49 -49.73, 143.66 -47.18 C142.82 -44.64, 140.85 -42.69, 139.58 -41.1 C138.3 -39.51, 137.25 -38.22, 135.99 -37.63 C134.74 -37.04, 131.75 -37.99, 132.05 -37.56 C132.35 -37.13, 136.18 -36.08, 137.79 -35.03 C139.39 -33.99, 141 -33.05, 141.68 -31.29 C142.37 -29.53, 142.48 -26.57, 141.9 -24.47 C141.32 -22.36, 139.62 -20.04, 138.21 -18.64 C136.79 -17.25, 135.13 -16.61, 133.4 -16.12 C131.66 -15.62, 129.53 -15.59, 127.8 -15.69 C126.06 -15.79, 124.79 -15.62, 122.98 -16.74 C121.17 -17.85, 117.65 -22.23, 116.92 -22.38 C116.2 -22.52, 118.79 -19.5, 118.64 -17.6 C118.49 -15.7, 116.73 -12.73, 116 -10.98 C115.27 -9.22, 115.56 -9.11, 114.27 -7.08 C112.98 -5.05, 110.21 -1.06, 108.24 1.18 C106.28 3.42, 105.69 4.32, 102.48 6.38 C99.26 8.45, 93.33 12.08, 88.94 13.57 C84.55 15.07, 80.61 15.34, 76.14 15.36 C71.67 15.38, 66.7 14.73, 62.1 13.69 C57.5 12.64, 52.02 11.12, 48.52 9.07 C45.02 7.02, 42.4 2.05, 41.1 1.38 C39.8 0.71, 42.17 3.71, 40.72 5.07 C39.27 6.43, 35.49 8.53, 32.38 9.54 C29.27 10.55, 25.41 11.11, 22.06 11.11 C18.72 11.1, 15.53 10.65, 12.32 9.51 C9.12 8.38, 4.89 5.87, 2.83 4.29 C0.78 2.7, 0.47 0.71, 0 0" stroke="#1971c2" stroke-width="4" fill="none"></path></g></g><mask></mask><g transform="translate(109.17845648301568 353.0000000000001) rotate(0 65.36995697021484 12.5)"><text x="0" y="0" font-family="Virgil, Segoe UI Emoji" font-size="20px" fill="#1971c2" text-anchor="start" style="white-space: pre;" direction="ltr" dominant-baseline="text-before-edge">External API</text></g></svg>