<?xml version="1.0" encoding="us-ascii" standalone="no"?><svg xmlns="http://www.w3.org/2000/svg" xmlns:xlink="http://www.w3.org/1999/xlink" contentStyleType="text/css" height="489px" preserveAspectRatio="none" style="width:663px;height:489px;background:#FFFFFF;" version="1.1" viewBox="0 0 663 489" width="663px" zoomAndPan="magnify"><defs/><g><rect fill="none" height="384.2031" style="stroke:#000000;stroke-width:1.5;" width="646.5" x="10" y="53.2969"/><rect fill="none" height="75.3984" style="stroke:#000000;stroke-width:1.5;" width="400" x="20" y="179.6328"/><rect fill="none" height="88.3984" style="stroke:#000000;stroke-width:1.5;" width="626.5" x="20" y="269.0313"/><line style="stroke:#181818;stroke-width:0.5;stroke-dasharray:5.0,5.0;" x1="89" x2="89" y1="36.2969" y2="454.5"/><line style="stroke:#181818;stroke-width:0.5;stroke-dasharray:5.0,5.0;" x1="361" x2="361" y1="36.2969" y2="454.5"/><line style="stroke:#181818;stroke-width:0.5;stroke-dasharray:5.0,5.0;" x1="437" x2="437" y1="36.2969" y2="454.5"/><rect fill="#E2E2F0" height="30.2969" rx="2.5" ry="2.5" style="stroke:#181818;stroke-width:0.5;" width="119" x="30" y="5"/><text fill="#000000" font-family="sans-serif" font-size="14" lengthAdjust="spacing" textLength="105" x="37" y="24.9951">StocksFetcher</text><rect fill="#E2E2F0" height="30.2969" rx="2.5" ry="2.5" style="stroke:#181818;stroke-width:0.5;" width="119" x="30" y="453.5"/><text fill="#000000" font-family="sans-serif" font-size="14" lengthAdjust="spacing" textLength="105" x="37" y="473.4951">StocksFetcher</text><rect fill="#E2E2F0" height="30.2969" rx="2.5" ry="2.5" style="stroke:#181818;stroke-width:0.5;" width="97" x="313" y="5"/><text fill="#000000" font-family="sans-serif" font-size="14" lengthAdjust="spacing" textLength="83" x="320" y="24.9951">ExternalAPI</text><rect fill="#E2E2F0" height="30.2969" rx="2.5" ry="2.5" style="stroke:#181818;stroke-width:0.5;" width="97" x="313" y="453.5"/><text fill="#000000" font-family="sans-serif" font-size="14" lengthAdjust="spacing" textLength="83" x="320" y="473.4951">ExternalAPI</text><rect fill="#E2E2F0" height="30.2969" rx="2.5" ry="2.5" style="stroke:#181818;stroke-width:0.5;" width="35" x="420" y="5"/><text fill="#000000" font-family="sans-serif" font-size="14" lengthAdjust="spacing" textLength="21" x="427" y="24.9951">DB</text><rect fill="#E2E2F0" height="30.2969" rx="2.5" ry="2.5" style="stroke:#181818;stroke-width:0.5;" width="35" x="420" y="453.5"/><text fill="#000000" font-family="sans-serif" font-size="14" lengthAdjust="spacing" textLength="21" x="427" y="473.4951">DB</text><path d="M10,53.2969 L76,53.2969 L76,60.4297 L66,70.4297 L10,70.4297 L10,53.2969 " fill="#EEEEEE" style="stroke:#000000;stroke-width:1.5;"/><rect fill="none" height="384.2031" style="stroke:#000000;stroke-width:1.5;" width="646.5" x="10" y="53.2969"/><text fill="#000000" font-family="sans-serif" font-size="13" font-weight="bold" lengthAdjust="spacing" textLength="21" x="25" y="66.3638">alt</text><text fill="#000000" font-family="sans-serif" font-size="11" font-weight="bold" lengthAdjust="spacing" textLength="142" x="91" y="65.5073">[Read companies job]</text><polygon fill="#181818" points="349.5,87.5625,359.5,91.5625,349.5,95.5625,353.5,91.5625" style="stroke:#181818;stroke-width:1.0;"/><line style="stroke:#181818;stroke-width:1.0;" x1="89.5" x2="355.5" y1="91.5625" y2="91.5625"/><text fill="#000000" font-family="sans-serif" font-size="13" lengthAdjust="spacing" textLength="180" x="96.5" y="86.4966">Request a list of Companies</text><polygon fill="#181818" points="100.5,116.6953,90.5,120.6953,100.5,124.6953,96.5,120.6953" style="stroke:#181818;stroke-width:1.0;"/><line style="stroke:#181818;stroke-width:1.0;" x1="94.5" x2="360.5" y1="120.6953" y2="120.6953"/><text fill="#000000" font-family="sans-serif" font-size="13" lengthAdjust="spacing" textLength="190" x="106.5" y="115.6294">Response a list of Companies</text><polygon fill="#181818" points="425.5,145.8281,435.5,149.8281,425.5,153.8281,429.5,149.8281" style="stroke:#181818;stroke-width:1.0;"/><line style="stroke:#181818;stroke-width:1.0;" x1="89.5" x2="431.5" y1="149.8281" y2="149.8281"/><text fill="#000000" font-family="sans-serif" font-size="13" lengthAdjust="spacing" textLength="145" x="96.5" y="144.7622">Save list of companies</text><line style="stroke:#000000;stroke-width:1.0;stroke-dasharray:2.0,2.0;" x1="10" x2="656.5" y1="158.8281" y2="158.8281"/><text fill="#000000" font-family="sans-serif" font-size="11" font-weight="bold" lengthAdjust="spacing" textLength="115" x="15" y="169.0386">[Read stocks job]</text><path d="M20,179.6328 L98,179.6328 L98,186.7656 L88,196.7656 L20,196.7656 L20,179.6328 " fill="#EEEEEE" style="stroke:#000000;stroke-width:1.5;"/><rect fill="none" height="75.3984" style="stroke:#000000;stroke-width:1.5;" width="400" x="20" y="179.6328"/><text fill="#000000" font-family="sans-serif" font-size="13" font-weight="bold" lengthAdjust="spacing" textLength="33" x="35" y="192.6997">loop</text><text fill="#000000" font-family="sans-serif" font-size="11" font-weight="bold" lengthAdjust="spacing" textLength="109" x="113" y="191.8433">[~10 000 times]</text><polygon fill="#181818" points="349.5,213.8984,359.5,217.8984,349.5,221.8984,353.5,217.8984" style="stroke:#181818;stroke-width:1.0;"/><line style="stroke:#181818;stroke-width:1.0;" x1="89.5" x2="355.5" y1="217.8984" y2="217.8984"/><text fill="#000000" font-family="sans-serif" font-size="13" lengthAdjust="spacing" textLength="238" x="96.5" y="212.8325">Request a stock by company symbol</text><polygon fill="#181818" points="100.5,243.0313,90.5,247.0313,100.5,251.0313,96.5,247.0313" style="stroke:#181818;stroke-width:1.0;"/><line style="stroke:#181818;stroke-width:1.0;" x1="94.5" x2="360.5" y1="247.0313" y2="247.0313"/><text fill="#000000" font-family="sans-serif" font-size="13" lengthAdjust="spacing" textLength="248" x="106.5" y="241.9653">Response a stock by company symbol</text><path d="M20,269.0313 L98,269.0313 L98,276.1641 L88,286.1641 L20,286.1641 L20,269.0313 " fill="#EEEEEE" style="stroke:#000000;stroke-width:1.5;"/><rect fill="none" height="88.3984" style="stroke:#000000;stroke-width:1.5;" width="626.5" x="20" y="269.0313"/><text fill="#000000" font-family="sans-serif" font-size="13" font-weight="bold" lengthAdjust="spacing" textLength="33" x="35" y="282.0981">loop</text><text fill="#000000" font-family="sans-serif" font-size="11" font-weight="bold" lengthAdjust="spacing" textLength="78" x="113" y="281.2417">[~50 times]</text><polygon fill="#181818" points="425.5,303.2969,435.5,307.2969,425.5,311.2969,429.5,307.2969" style="stroke:#181818;stroke-width:1.0;"/><line style="stroke:#181818;stroke-width:1.0;" x1="89.5" x2="431.5" y1="307.2969" y2="307.2969"/><text fill="#000000" font-family="sans-serif" font-size="13" lengthAdjust="spacing" textLength="155" x="96.5" y="302.231">Save stocks (Batch 200)</text><line style="stroke:#181818;stroke-width:1.0;" x1="437.5" x2="479.5" y1="336.4297" y2="336.4297"/><line style="stroke:#181818;stroke-width:1.0;" x1="479.5" x2="479.5" y1="336.4297" y2="349.4297"/><line style="stroke:#181818;stroke-width:1.0;" x1="438.5" x2="479.5" y1="349.4297" y2="349.4297"/><polygon fill="#181818" points="448.5,345.4297,438.5,349.4297,448.5,353.4297,444.5,349.4297" style="stroke:#181818;stroke-width:1.0;"/><text fill="#000000" font-family="sans-serif" font-size="13" lengthAdjust="spacing" textLength="190" x="444.5" y="331.3638">audit loggining in update data</text><line style="stroke:#000000;stroke-width:1.0;stroke-dasharray:2.0,2.0;" x1="10" x2="656.5" y1="365.4297" y2="365.4297"/><text fill="#000000" font-family="sans-serif" font-size="11" font-weight="bold" lengthAdjust="spacing" textLength="81" x="15" y="375.6401">[Report job]</text><polygon fill="#181818" points="425.5,396.3672,435.5,400.3672,425.5,404.3672,429.5,400.3672" style="stroke:#181818;stroke-width:1.0;"/><line style="stroke:#181818;stroke-width:1.0;" x1="89.5" x2="431.5" y1="400.3672" y2="400.3672"/><text fill="#000000" font-family="sans-serif" font-size="13" lengthAdjust="spacing" textLength="162" x="96.5" y="395.3013">Query for analistycs data</text><polygon fill="#181818" points="100.5,425.5,90.5,429.5,100.5,433.5,96.5,429.5" style="stroke:#181818;stroke-width:1.0;"/><line style="stroke:#181818;stroke-width:1.0;" x1="94.5" x2="436.5" y1="429.5" y2="429.5"/><text fill="#000000" font-family="sans-serif" font-size="13" lengthAdjust="spacing" textLength="137" x="106.5" y="424.4341">Reply analistycs data</text><!--SRC=[ZL8nJiGm4EppYYcXG398D5SW4GuaEk1Ui4dsWi6nJUmWtF1szg8aO8u3jh0Bxypip9fCn0DJWzfrdgpcW2TN5GMaDj7Lp-66O_t8FKukSFqMkRTaBkzkLu9w6JX448oMosrnDLECw2_D0isvTkZWdGry4BudlYvNsD0hB_tBn4N1HfX66s64VNhObN7Eu_rKGIc5gBj9OQvCwR3BaHbLcdGJGkegPpAgNpndbl_YOjjyc_xyFvCl4Kqf79KaJpXJwZZ3hSkfcOP6Hr5eMssrRQ4j1jzGPCX1sJXpnjxrSOdtnoNT3zmdR5qFaYXaMQaE2zyelVyPl4bxtON8VW00]--></g></svg>